<svg width="312" height="844" viewBox="0 0 312 844" fill="none" xmlns="http://www.w3.org/2000/svg">
<rect width="312" height="844" rx="8" fill="#CBCBCB"/>
<rect x="204.5" y="633" width="36.5" height="36.5" transform="rotate(-90 204.5 633)" fill="#D9D9D9"/>
<rect x="204.5" y="596.5" width="36.5" height="36.5" transform="rotate(-90 204.5 596.5)" fill="#D9D9D9" fill-opacity="0.5"/>
<rect x="241" y="596.5" width="36.5" height="36.5" transform="rotate(-90 241 596.5)" fill="#D9D9D9" fill-opacity="0.9"/>
<rect x="204.5" y="560" width="36.5" height="36.5" transform="rotate(-90 204.5 560)" fill="#D9D9D9" fill-opacity="0.9"/>
<rect x="204.5" y="523.5" width="36.5" height="36.5" transform="rotate(-90 204.5 523.5)" fill="#D9D9D9" fill-opacity="0.5"/>
<rect x="168" y="523.5" width="36.5" height="36.5" transform="rotate(-90 168 523.5)" fill="#D9D9D9" fill-opacity="0.9"/>
<rect x="275.444" y="633" width="36.5" height="36.5" transform="rotate(-90 275.444 633)" fill="#D9D9D9" fill-opacity="0.9"/>
<rect x="107.486" width="36.5142" height="36.5142" transform="rotate(90 107.486 0)" fill="#D9D9D9"/>
<rect x="107.486" y="36.5143" width="36.5142" height="36.5142" transform="rotate(90 107.486 36.5143)" fill="#D9D9D9" fill-opacity="0.5"/>
<rect x="70.9714" y="36.5143" width="36.5142" height="36.5142" transform="rotate(90 70.9714 36.5143)" fill="#D9D9D9" fill-opacity="0.9"/>
<rect x="107.486" y="73.0286" width="36.5142" height="36.5142" transform="rotate(90 107.486 73.0286)" fill="#D9D9D9" fill-opacity="0.9"/>
<rect x="107.486" y="109.543" width="36.5142" height="36.5142" transform="rotate(90 107.486 109.543)" fill="#D9D9D9" fill-opacity="0.5"/>
<rect x="144" y="109.543" width="36.5142" height="36.5142" transform="rotate(90 144 109.543)" fill="#D9D9D9" fill-opacity="0.9"/>
<rect x="36.5142" width="36.5142" height="36.5142" transform="rotate(90 36.5142 0)" fill="#D9D9D9" fill-opacity="0.9"/>
</svg>
