<svg width="691" height="583" viewBox="0 0 691 583" fill="none" xmlns="http://www.w3.org/2000/svg">
<rect width="690" height="583" rx="8" fill="#CBCBCB"/>
<rect x="45" y="583" width="45" height="45" transform="rotate(-90 45 583)" fill="#D9D9D9"/>
<rect x="45" y="538" width="45" height="45" transform="rotate(-90 45 538)" fill="#D9D9D9" fill-opacity="0.5"/>
<rect x="90" y="538" width="45" height="45" transform="rotate(-90 90 538)" fill="#D9D9D9" fill-opacity="0.9"/>
<rect x="45" y="493" width="45" height="45" transform="rotate(-90 45 493)" fill="#D9D9D9" fill-opacity="0.9"/>
<rect x="45" y="448" width="45" height="45" transform="rotate(-90 45 448)" fill="#D9D9D9" fill-opacity="0.5"/>
<rect y="448" width="45" height="45" transform="rotate(-90 0 448)" fill="#D9D9D9" fill-opacity="0.9"/>
<rect x="132.465" y="583" width="45" height="45" transform="rotate(-90 132.465 583)" fill="#D9D9D9" fill-opacity="0.9"/>
<rect x="645.465" width="45" height="45" transform="rotate(90 645.465 0)" fill="#D9D9D9"/>
<rect x="645.465" y="45" width="45" height="45" transform="rotate(90 645.465 45)" fill="#D9D9D9" fill-opacity="0.5"/>
<rect x="600.465" y="45" width="45" height="45" transform="rotate(90 600.465 45)" fill="#D9D9D9" fill-opacity="0.9"/>
<rect x="645.465" y="90.0001" width="45" height="45" transform="rotate(90 645.465 90.0001)" fill="#D9D9D9" fill-opacity="0.9"/>
<rect x="645.465" y="135" width="45" height="45" transform="rotate(90 645.465 135)" fill="#D9D9D9" fill-opacity="0.5"/>
<rect x="690.465" y="135" width="45" height="45" transform="rotate(90 690.465 135)" fill="#D9D9D9" fill-opacity="0.9"/>
<rect x="558" width="45" height="45" transform="rotate(90 558 0)" fill="#D9D9D9" fill-opacity="0.9"/>
</svg>
